<?xml version="1.0" encoding="UTF-8"?>
<svg width="26px" height="26px" viewBox="0 0 26 26" version="1.1" xmlns="http://www.w3.org/2000/svg" xmlns:xlink="http://www.w3.org/1999/xlink">
    <!-- Generator: Sketch 49.3 (51167) - http://www.bohemiancoding.com/sketch -->
    <title>2</title>
    <desc>Created with Sketch.</desc>
    <defs></defs>
    <g id="Page-1" stroke="none" stroke-width="1" fill="none" fill-rule="evenodd">
        <g id="The-Building" transform="translate(-403.000000, -1655.000000)">
            <g id="2" transform="translate(403.000000, 1655.000000)">
                <g>
                    <circle id="Oval" fill="#000000" cx="13" cy="13" r="13"></circle>
                    <path d="M16.143,18 L9.675,18 L9.675,16.698 L13.623,12.778 C13.9216682,12.4699985 14.1783323,12.1480017 14.393,11.812 C14.6076677,11.4759983 14.715,11.0980021 14.715,10.678 C14.715,10.4166654 14.6683338,10.1810011 14.575,9.971 C14.4816662,9.76099895 14.3556675,9.58133408 14.197,9.432 C14.0383325,9.28266592 13.8516677,9.16833373 13.637,9.089 C13.4223323,9.00966627 13.1936679,8.97 12.951,8.97 C12.4469975,8.97 12.0316683,9.13099839 11.705,9.453 C11.3783317,9.77500161 11.1730004,10.1879975 11.089,10.692 L9.759,10.468 C9.81500028,10.0946648 9.93399909,9.74700161 10.116,9.425 C10.2980009,9.10299839 10.5289986,8.82300119 10.809,8.585 C11.0890014,8.34699881 11.4133315,8.16266732 11.782,8.032 C12.1506685,7.90133268 12.5449979,7.836 12.965,7.836 C13.3756687,7.836 13.7699981,7.89666606 14.148,8.018 C14.5260019,8.13933394 14.8596652,8.3166655 15.149,8.55 C15.4383348,8.7833345 15.6693325,9.07733156 15.842,9.432 C16.0146675,9.78666844 16.101,10.1926644 16.101,10.65 C16.101,10.9673349 16.0590004,11.261332 15.975,11.532 C15.8909996,11.802668 15.7766674,12.0593321 15.632,12.302 C15.4873326,12.5446679 15.317001,12.7756656 15.121,12.995 C14.924999,13.2143344 14.7196677,13.4313323 14.505,13.646 L11.285,16.782 L16.143,16.782 L16.143,18 Z" fill="#FFFFFF"></path>
                </g>
            </g>
        </g>
    </g>
</svg>