<?xml version="1.0" encoding="UTF-8"?>
<svg width="26px" height="26px" viewBox="0 0 26 26" version="1.1" xmlns="http://www.w3.org/2000/svg" xmlns:xlink="http://www.w3.org/1999/xlink">
    <!-- Generator: Sketch 49.3 (51167) - http://www.bohemiancoding.com/sketch -->
    <title>3</title>
    <desc>Created with Sketch.</desc>
    <defs></defs>
    <g id="Page-1" stroke="none" stroke-width="1" fill="none" fill-rule="evenodd">
        <g id="The-Building" transform="translate(-643.000000, -1655.000000)">
            <g id="3" transform="translate(643.000000, 1655.000000)">
                <g>
                    <circle id="Oval" fill="#000000" cx="13" cy="13" r="13"></circle>
                    <path d="M11.817,12.26 L12.251,12.26 C12.5310014,12.26 12.8039987,12.2343336 13.07,12.183 C13.3360013,12.1316664 13.5716656,12.0430006 13.777,11.917 C13.9823344,11.7909994 14.1479994,11.6206677 14.274,11.406 C14.4000006,11.1913323 14.463,10.9253349 14.463,10.608 C14.463,10.3559987 14.4163338,10.1296677 14.323,9.929 C14.2296662,9.72833233 14.1013341,9.5580007 13.938,9.418 C13.7746659,9.2779993 13.588001,9.16833373 13.378,9.089 C13.1679989,9.00966627 12.9463345,8.97 12.713,8.97 C12.2929979,8.97 11.9360015,9.07733226 11.642,9.292 C11.3479985,9.50666774 11.1263341,9.80533142 10.977,10.188 L9.745,9.754 C9.98766788,9.15666368 10.3773307,8.68766837 10.914,8.347 C11.4506694,8.00633163 12.0689965,7.836 12.769,7.836 C13.1796687,7.836 13.5693315,7.89433275 13.938,8.011 C14.3066685,8.12766725 14.6309986,8.29799888 14.911,8.522 C15.1910014,8.74600112 15.4126658,9.02599832 15.576,9.362 C15.7393342,9.69800168 15.821,10.0853311 15.821,10.524 C15.821,10.8040014 15.7766671,11.0653321 15.688,11.308 C15.5993329,11.5506679 15.4780008,11.769999 15.324,11.966 C15.1699992,12.162001 14.9856677,12.3299993 14.771,12.47 C14.5563323,12.6100007 14.3230013,12.7126663 14.071,12.778 L14.071,12.806 C14.3603348,12.8620003 14.6286654,12.9599993 14.876,13.1 C15.1233346,13.2400007 15.3356658,13.4149989 15.513,13.625 C15.6903342,13.835001 15.8303328,14.075332 15.933,14.346 C16.0356672,14.616668 16.087,14.9106651 16.087,15.228 C16.087,15.7226691 15.9936676,16.1589981 15.807,16.537 C15.6203324,16.9150019 15.3730015,17.2299987 15.065,17.482 C14.7569985,17.7340013 14.4023353,17.9253327 14.001,18.056 C13.5996647,18.1866673 13.1890021,18.252 12.769,18.252 C11.9849961,18.252 11.2943363,18.0746684 10.697,17.72 C10.0996637,17.3653316 9.66566802,16.8146704 9.395,16.068 L10.655,15.648 C10.8043341,16.0773355 11.0586649,16.427332 11.418,16.698 C11.7773351,16.968668 12.2183307,17.104 12.741,17.104 C12.9930013,17.104 13.2379988,17.0643337 13.476,16.985 C13.7140012,16.9056663 13.9263324,16.7866675 14.113,16.628 C14.2996676,16.4693325 14.4489994,16.2733345 14.561,16.04 C14.6730006,15.8066655 14.729,15.5313349 14.729,15.214 C14.729,14.8686649 14.6543341,14.5793345 14.505,14.346 C14.3556659,14.1126655 14.1620012,13.9236674 13.924,13.779 C13.6859988,13.6343326 13.4176682,13.531667 13.119,13.471 C12.8203318,13.410333 12.5263348,13.38 12.237,13.38 L11.817,13.38 L11.817,12.26 Z" fill="#FFFFFF"></path>
                </g>
            </g>
        </g>
    </g>
</svg>