<?xml version="1.0" encoding="UTF-8"?>
<svg width="26px" height="26px" viewBox="0 0 26 26" version="1.1" xmlns="http://www.w3.org/2000/svg" xmlns:xlink="http://www.w3.org/1999/xlink">
    <!-- Generator: Sketch 49.3 (51167) - http://www.bohemiancoding.com/sketch -->
    <title>5</title>
    <desc>Created with Sketch.</desc>
    <defs></defs>
    <g id="Page-1" stroke="none" stroke-width="1" fill="none" fill-rule="evenodd">
        <g id="The-Building" transform="translate(-403.000000, -1749.000000)">
            <g id="5" transform="translate(403.000000, 1749.000000)">
                <g>
                    <circle id="Oval" fill="#000000" cx="13" cy="13" r="13"></circle>
                    <path d="M15.695,9.292 L11.607,9.292 L11.523,11.896 C11.7096676,11.8306663 11.9173322,11.7840001 12.146,11.756 C12.3746678,11.7279999 12.5916656,11.714 12.797,11.714 C13.2730024,11.714 13.713998,11.7863326 14.12,11.931 C14.526002,12.0756674 14.8759985,12.283332 15.17,12.554 C15.4640015,12.824668 15.6949992,13.1536647 15.863,13.541 C16.0310008,13.9283353 16.115,14.3599976 16.115,14.836 C16.115,15.3586693 16.0263342,15.8299979 15.849,16.25 C15.6716658,16.6700021 15.4290015,17.0269985 15.121,17.321 C14.8129985,17.6150015 14.4490021,17.8436659 14.029,18.007 C13.6089979,18.1703342 13.1516691,18.252 12.657,18.252 C11.8823295,18.252 11.2290027,18.0723351 10.697,17.713 C10.1649973,17.3536649 9.76366802,16.8706697 9.493,16.264 L10.725,15.774 C10.8836675,16.1753353 11.1333316,16.4973321 11.474,16.74 C11.8146684,16.9826679 12.2089978,17.104 12.657,17.104 C12.9463348,17.104 13.2169987,17.0526672 13.469,16.95 C13.7210013,16.8473328 13.9403324,16.7026676 14.127,16.516 C14.3136676,16.3293324 14.4606661,16.1053346 14.568,15.844 C14.6753339,15.5826654 14.729,15.2933349 14.729,14.976 C14.729,14.6026648 14.6660006,14.2783347 14.54,14.003 C14.4139994,13.7276653 14.2436677,13.5013342 14.029,13.324 C13.8143323,13.1466658 13.5670014,13.0160004 13.287,12.932 C13.0069986,12.8479996 12.7130015,12.806 12.405,12.806 C12.0316648,12.806 11.649002,12.8573328 11.257,12.96 C10.864998,13.0626672 10.5150015,13.1933325 10.207,13.352 L10.347,8.088 L15.695,8.088 L15.695,9.292 Z" fill="#FFFFFF"></path>
                </g>
            </g>
        </g>
    </g>
</svg>