<?xml version="1.0" encoding="UTF-8"?>
<svg width="26px" height="26px" viewBox="0 0 26 26" version="1.1" xmlns="http://www.w3.org/2000/svg" xmlns:xlink="http://www.w3.org/1999/xlink">
    <!-- Generator: Sketch 49.3 (51167) - http://www.bohemiancoding.com/sketch -->
    <title>6</title>
    <desc>Created with Sketch.</desc>
    <defs></defs>
    <g id="6" stroke="none" stroke-width="1" fill="none" fill-rule="evenodd">
        <g>
            <circle id="Oval" fill="#000000" cx="13" cy="13" r="13"></circle>
            <path d="M12.069,12.078 L12.083,12.106 C12.2230007,12.0219996 12.4096655,11.9566669 12.643,11.91 C12.8763345,11.8633331 13.1003323,11.84 13.315,11.84 C13.7443355,11.84 14.1479981,11.9169992 14.526,12.071 C14.9040019,12.2250008 15.2329986,12.4396653 15.513,12.715 C15.7930014,12.9903347 16.0123325,13.3193314 16.171,13.702 C16.3296675,14.0846686 16.409,14.4999978 16.409,14.948 C16.409,15.4426691 16.3226675,15.892998 16.15,16.299 C15.9773325,16.705002 15.7370015,17.0526652 15.429,17.342 C15.1209985,17.6313348 14.7593354,17.8553325 14.344,18.014 C13.9286646,18.1726675 13.4783358,18.252 12.993,18.252 C12.4983309,18.252 12.0410021,18.1703342 11.621,18.007 C11.2009979,17.8436659 10.8393349,17.6173348 10.536,17.328 C10.2326652,17.0386652 9.99466753,16.6933353 9.822,16.292 C9.64933247,15.8906647 9.563,15.456669 9.563,14.99 C9.563,14.448664 9.65166578,13.9586689 9.829,13.52 C10.0063342,13.0813311 10.2396652,12.6333356 10.529,12.176 L13.119,8.088 L14.729,8.088 L12.069,12.078 Z M10.935,15.004 C10.935,15.2933348 10.9839995,15.566332 11.082,15.823 C11.1800005,16.079668 11.3199991,16.3013324 11.502,16.488 C11.6840009,16.6746676 11.9009987,16.8239994 12.153,16.936 C12.4050013,17.0480006 12.6849985,17.104 12.993,17.104 C13.3010015,17.104 13.5786654,17.0526672 13.826,16.95 C14.0733346,16.8473328 14.2879991,16.7003343 14.47,16.509 C14.6520009,16.3176657 14.7919995,16.093668 14.89,15.837 C14.9880005,15.580332 15.037,15.2980015 15.037,14.99 C15.037,14.6913318 14.9880005,14.4160013 14.89,14.164 C14.7919995,13.9119987 14.6566675,13.6926676 14.484,13.506 C14.3113325,13.3193324 14.0990013,13.1746672 13.847,13.072 C13.5949987,12.9693328 13.3150015,12.918 13.007,12.918 C12.6989985,12.918 12.416668,12.9693328 12.16,13.072 C11.903332,13.1746672 11.6840009,13.3193324 11.502,13.506 C11.3199991,13.6926676 11.1800005,13.9119987 11.082,14.164 C10.9839995,14.4160013 10.935,14.6959985 10.935,15.004 Z" fill="#FFFFFF"></path>
        </g>
    </g>
</svg>