<?xml version="1.0" encoding="UTF-8"?>
<svg width="22px" height="22px" viewBox="0 0 22 22" version="1.1" xmlns="http://www.w3.org/2000/svg" xmlns:xlink="http://www.w3.org/1999/xlink">
    <!-- Generator: Sketch 49.3 (51167) - http://www.bohemiancoding.com/sketch -->
    <title>call</title>
    <desc>Created with Sketch.</desc>
    <defs></defs>
    <g id="Page-1" stroke="none" stroke-width="1" fill="none" fill-rule="evenodd" stroke-linecap="round" stroke-linejoin="bevel">
        <g id="Contact" transform="translate(-411.000000, -580.000000)" stroke="#FFFFFF" stroke-width="2">
            <g id="Details" transform="translate(0.000000, 501.000000)">
                <g id="call" transform="translate(412.000000, 78.000000)">
                    <path d="M19.9992806,16.9200105 L19.9992806,19.9200105 C20.0042806,21.0240105 19.1112806,21.9240105 18.0072806,21.9280105 C17.9442806,21.9290105 17.8822806,21.9260105 17.8192806,21.9200105 C14.7422806,21.5860105 11.7862806,20.5340105 9.18928059,18.8500105 C6.77328059,17.3150105 4.72428059,15.2670105 3.18928059,12.8500105 C1.49928059,10.2410105 0.447280588,7.2710105 0.119280588,4.1800105 C0.0202805879,3.0800105 0.831280588,2.1070105 1.93128059,2.0080105 C1.99028059,2.0030105 2.04928059,2.0000105 2.10928059,2.0000105 L5.10928059,2.0000105 C6.11328059,1.9900105 6.96928059,2.7260105 7.10928059,3.7200105 C7.23628059,4.6800105 7.47128059,5.6230105 7.80928059,6.5300105 C8.08428059,7.2610105 7.90828059,8.0850105 7.35928059,8.6400105 L6.08928059,9.9100105 C7.51328059,12.4140105 9.58528059,14.4860105 12.0892806,15.9100105 L13.3592806,14.6400105 C13.9142806,14.0910105 14.7382806,13.9150105 15.4692806,14.1910105 C16.3762806,14.5280105 17.3192806,14.7640105 18.2792806,14.8900105 C19.2842806,15.0320105 20.0242806,15.9050105 19.9992806,16.9200105 Z" id="Page-1"></path>
                </g>
            </g>
        </g>
    </g>
</svg>