<?xml version="1.0" encoding="UTF-8"?>
<svg width="18px" height="22px" viewBox="0 0 18 22" version="1.1" xmlns="http://www.w3.org/2000/svg" xmlns:xlink="http://www.w3.org/1999/xlink">
    <!-- Generator: Sketch 49.3 (51167) - http://www.bohemiancoding.com/sketch -->
    <title>directions</title>
    <desc>Created with Sketch.</desc>
    <defs></defs>
    <g id="Page-1" stroke="none" stroke-width="1" fill="none" fill-rule="evenodd" stroke-linecap="round" stroke-linejoin="bevel">
        <g id="Contact" transform="translate(-177.000000, -578.000000)" stroke="#FFFFFF">
            <g id="Details" transform="translate(0.000000, 501.000000)">
                <g id="directions" transform="translate(178.000000, 78.000000)">
                    <g id="Page-1">
                        <path d="M8,5 C9.657,5 11,6.343 11,8 C11,9.657 9.657,11 8,11 C6.343,11 5,9.657 5,8 C5,6.343 6.343,5 8,5 Z" id="Stroke-1" stroke-width="2"></path>
                        <path d="M8,19.7002 C13.3,15.0002 16,11.0002 16,8.0002 C16,3.5812 12.418,0.0002 8,0.0002 C3.582,0.0002 0,3.5812 0,8.0002 C0,11.0002 2.7,14.9002 8,19.7002 Z" id="Stroke-3" stroke-width="2"></path>
                    </g>
                </g>
            </g>
        </g>
    </g>
</svg>