<?xml version="1.0" encoding="UTF-8"?>
<svg width="70px" height="70px" viewBox="0 0 70 70" version="1.1" xmlns="http://www.w3.org/2000/svg" xmlns:xlink="http://www.w3.org/1999/xlink">
    <!-- Generator: Sketch 49.3 (51167) - http://www.bohemiancoding.com/sketch -->
    <title>LOGO Alt</title>
    <desc>Created with Sketch.</desc>
    <defs>
        <polygon id="path-1" points="0 69.9525217 69.9531304 69.9525217 69.9531304 0 0 0"></polygon>
    </defs>
    <g id="Page-1" stroke="none" stroke-width="1" fill="none" fill-rule="evenodd">
        <g id="Homepage" transform="translate(-43.000000, -4698.000000)">
            <g id="FOOTER" transform="translate(0.000000, 4647.000000)">
                <g id="LOGO-Alt" transform="translate(43.000000, 51.000000)">
                    <g id="Page-1">
                        <path d="M34.9764435,69.9525217 C54.2940087,69.9525217 69.9527043,54.2926087 69.9527043,34.9762609 C69.9527043,15.6593043 54.2940087,0 34.9764435,0 C15.659487,0 0.000182608696,15.6593043 0.000182608696,34.9762609 C0.000182608696,54.2926087 15.659487,69.9525217 34.9764435,69.9525217" id="Fill-1" fill="#FFFFFF"></path>
                        <polygon id="Fill-3" fill="#000000" points="21.4618174 21.2247913 19.6813826 21.2247913 19.6813826 18.5380087 16.7632957 18.5380087 16.7632957 21.2247913 14.9828609 21.2247913 14.9828609 14.0610522 16.7632957 14.0610522 16.7632957 16.9371391 19.6813826 16.9371391 19.6813826 14.0610522 21.4618174 14.0610522"></polygon>
                        <path d="M27.9740696,18.6645565 C27.9740696,20.2240348 26.815113,21.3829913 25.203287,21.3829913 C23.5914609,21.3829913 22.4325043,20.2240348 22.4325043,18.6645565 C22.4325043,17.1269913 23.5914609,15.999687 25.203287,15.999687 C26.815113,15.999687 27.9740696,17.1269913 27.9740696,18.6645565 M26.3622435,18.675513 C26.3622435,18.0120348 25.8984174,17.4739478 25.2136348,17.4739478 C24.5185043,17.4739478 24.055287,18.0120348 24.055287,18.675513 C24.055287,19.3602957 24.5185043,19.907513 25.2136348,19.907513 C25.8984174,19.907513 26.3622435,19.3602957 26.3622435,18.675513" id="Fill-5" fill="#000000"></path>
                        <path d="M32.9902087,16.1150348 L32.9902087,17.5795565 L31.1890783,17.5795565 L31.1890783,21.2250348 L29.481687,21.2250348 L29.481687,17.5795565 L28.2283826,17.5795565 L28.2283826,16.1150348 L29.481687,16.1150348 L29.481687,15.504513 C29.481687,14.0290348 30.419687,13.1123391 31.7259478,13.1123391 C32.1368174,13.1123391 32.5683826,13.1652957 33.0845565,13.3022522 L32.8532522,14.7241652 C32.6109913,14.6718174 32.3054261,14.6298174 32.073513,14.6298174 C31.5360348,14.6298174 31.1890783,14.9560783 31.1890783,15.4619043 L31.1890783,16.1150348 L32.9902087,16.1150348 Z" id="Fill-7" fill="#000000"></path>
                        <path d="M39.2168609,18.6645565 C39.2168609,20.1820348 38.0579043,21.3300348 36.6779913,21.3300348 C36.1198174,21.3300348 35.6559913,21.1827304 35.2767739,20.9404696 L35.2767739,23.5949913 L33.5706,23.5949913 L33.5706,16.1153391 L35.2767739,16.1153391 L35.2767739,16.3886435 C35.6559913,16.1463826 36.1198174,15.999687 36.6779913,15.999687 C38.0579043,15.999687 39.2168609,17.1373391 39.2168609,18.6645565 M37.5417304,18.6645565 C37.5417304,17.9584696 37.036513,17.3899478 36.3407739,17.3899478 C35.9615565,17.3899478 35.592687,17.5056 35.2767739,17.8744696 L35.2767739,19.4552522 C35.592687,19.823513 35.9615565,19.9288174 36.3407739,19.9288174 C37.036513,19.9288174 37.5417304,19.3706435 37.5417304,18.6645565" id="Fill-9" fill="#000000"></path>
                        <mask id="mask-2" fill="white">
                            <use xlink:href="#path-1"></use>
                        </mask>
                        <g id="Clip-12"></g>
                        <polygon id="Fill-11" fill="#000000" mask="url(#mask-2)" points="40.1136522 21.2246087 41.8204348 21.2246087 41.8204348 13.7443478 40.1136522 13.7443478"></polygon>
                        <path d="M48.0262696,19.138913 L48.0372261,19.1705652 L44.3917478,19.1705652 C44.5287043,19.6337826 44.8872261,19.9923043 45.5397478,19.9923043 C45.8982696,19.9923043 46.1721826,19.8547391 46.319487,19.6234348 L48.0055739,19.6234348 C47.7627043,20.6764783 46.783313,21.3405652 45.5190522,21.3405652 C43.8439217,21.3405652 42.7269652,20.2242174 42.7269652,18.6647391 C42.7269652,17.1156087 43.8122696,15.9998696 45.4454,15.9998696 C46.9306174,15.9998696 48.0579217,17.0212609 48.0579217,18.5594348 C48.0579217,18.7487391 48.0579217,18.949 48.0262696,19.138913 M44.3704435,18.1692609 L46.4564435,18.1692609 C46.3620957,17.6116957 45.9932261,17.3158696 45.4454,17.3158696 C44.8659217,17.3158696 44.4970522,17.6536957 44.3704435,18.1692609" id="Fill-13" fill="#000000" mask="url(#mask-2)"></path>
                        <path d="M48.8489826,14.3558435 C48.8489826,13.7976696 49.292113,13.3868 49.850287,13.3868 C50.398113,13.3868 50.8509826,13.7976696 50.8509826,14.3558435 C50.8509826,14.9036696 50.398113,15.3145391 49.850287,15.3145391 C49.292113,15.3145391 48.8489826,14.9036696 48.8489826,14.3558435 Z M49.0066348,21.2249739 L50.7134174,21.2249739 L50.7134174,16.1155826 L49.0066348,16.1155826 L49.0066348,21.2249739 Z" id="Fill-14" fill="#000000" mask="url(#mask-2)"></path>
                        <path d="M57.2042435,18.3067043 L57.2042435,21.2247913 L55.4865043,21.2247913 L55.4865043,18.5800087 C55.4865043,17.8532261 55.1182435,17.5056609 54.5594609,17.5056609 C54.2435478,17.5056609 53.9063304,17.6852261 53.6117217,18.0224435 L53.6117217,21.2247913 L51.9043304,21.2247913 L51.9043304,16.1154 L53.6117217,16.1154 L53.6117217,16.4629652 C54.0219826,16.1367043 54.4760696,15.9571391 55.023287,15.9571391 C56.3192,15.9571391 57.2042435,16.8525304 57.2042435,18.3067043" id="Fill-15" fill="#000000" mask="url(#mask-2)"></path>
                        <polygon id="Fill-16" fill="#000000" mask="url(#mask-2)" points="29.9027217 56.7740174 14.9848087 56.7740174 14.9848087 50.6036696 18.3819391 50.6036696 18.3819391 34.1640174 15.0913304 35.0898435 14.920287 28.316887 21.1746348 26.146887 25.6789826 26.146887 25.6789826 50.6036696 29.9027217 50.6036696"></polygon>
                        <path d="M44.9661739,41.6006348 C42.0766957,41.6006348 39.7338261,39.3770696 39.7338261,36.6330696 C39.7338261,33.890287 42.0766957,31.666113 44.9661739,31.666113 C47.8562609,31.666113 50.1991304,33.890287 50.1991304,36.6330696 C50.1991304,39.3770696 47.8562609,41.6006348 44.9661739,41.6006348 M44.9491304,25.5968087 C37.6216522,25.5968087 32.5865217,30.5418522 32.5865217,36.9252435 C32.5865217,42.7693304 37.1718261,47.3095913 43.9593913,47.7143739 L38.1603478,56.8393304 L46.7021739,56.8393304 L54.6590435,44.2076783 C56.2769565,41.6456783 57.266087,39.3076783 57.266087,36.7907217 C57.266087,30.6319391 52.3210435,25.5968087 44.9491304,25.5968087" id="Fill-17" fill="#000000" mask="url(#mask-2)"></path>
                    </g>
                </g>
            </g>
        </g>
    </g>
</svg>