<?xml version="1.0" encoding="UTF-8"?>
<svg width="71px" height="72px" viewBox="0 0 71 72" version="1.1" xmlns="http://www.w3.org/2000/svg" xmlns:xlink="http://www.w3.org/1999/xlink">
    <!-- Generator: Sketch 49.3 (51167) - http://www.bohemiancoding.com/sketch -->
    <title>LOGO</title>
    <desc>Created with Sketch.</desc>
    <defs>
        <polygon id="path-1" points="0 0.0484137931 70.9523374 0.0484137931 70.9523374 71.3793103 0 71.3793103"></polygon>
        <polygon id="path-3" points="0 71.9515862 70.9524609 71.9515862 70.9524609 0.620689655 0 0.620689655"></polygon>
    </defs>
    <g id="Page-1" stroke="none" stroke-width="1" fill="none" fill-rule="evenodd">
        <g id="Homepage" transform="translate(-42.000000, -17.000000)">
            <g id="HEADER" transform="translate(42.000000, 17.000000)">
                <g id="LOGO">
                    <g id="Page-1">
                        <g id="Group-3" transform="translate(0.000000, 0.572276)">
                            <mask id="mask-2" fill="white">
                                <use xlink:href="#path-1"></use>
                            </mask>
                            <g id="Clip-2"></g>
                            <path d="M35.4764157,71.3793103 C55.0693287,71.3793103 70.9523374,55.4108276 70.9523374,35.7138621 C70.9523374,16.0162759 55.0693287,0.0484137931 35.4764157,0.0484137931 C15.8835026,0.0484137931 -0.000123478261,16.0162759 -0.000123478261,35.7138621 C-0.000123478261,55.4108276 15.8835026,71.3793103 35.4764157,71.3793103" id="Fill-1" fill="#000000" mask="url(#mask-2)"></path>
                        </g>
                        <polygon id="Fill-4" fill="#FFFFFF" points="21.7684148 22.2637034 19.9619278 22.2637034 19.9619278 19.5239793 17.0021539 19.5239793 17.0021539 22.2637034 15.1962843 22.2637034 15.1962843 14.9588069 17.0021539 14.9588069 17.0021539 17.8915655 19.9619278 17.8915655 19.9619278 14.9588069 21.7684148 14.9588069"></polygon>
                        <path d="M28.3740078,19.6530207 C28.3740078,21.2432276 27.1984948,22.4250207 25.5630252,22.4250207 C23.9287904,22.4250207 22.7532774,21.2432276 22.7532774,19.6530207 C22.7532774,18.0851586 23.9287904,16.9356414 25.5630252,16.9356414 C27.1984948,16.9356414 28.3740078,18.0851586 28.3740078,19.6530207 M26.7391557,19.6641931 C26.7391557,18.9876414 26.2687035,18.4389517 25.5741383,18.4389517 C24.86846,18.4389517 24.3992426,18.9876414 24.3992426,19.6641931 C24.3992426,20.362469 24.86846,20.920469 25.5741383,20.920469 C26.2687035,20.920469 26.7391557,20.362469 26.7391557,19.6641931" id="Fill-6" fill="#FFFFFF"></path>
                        <path d="M33.4614974,17.0532621 L33.4614974,18.5466414 L31.6340191,18.5466414 L31.6340191,22.2639517 L29.9028539,22.2639517 L29.9028539,18.5466414 L28.6316452,18.5466414 L28.6316452,17.0532621 L29.9028539,17.0532621 L29.9028539,16.4307103 C29.9028539,14.9261586 30.8536365,13.9914 32.1791757,13.9914 C32.5959148,13.9914 33.0336452,14.0454 33.557193,14.1850552 L33.321967,15.6349862 C33.0768626,15.5816069 32.7669322,15.5387793 32.5317061,15.5387793 C31.9865496,15.5387793 31.6340191,15.871469 31.6340191,16.3872621 L31.6340191,17.0532621 L33.4614974,17.0532621 Z" id="Fill-8" fill="#FFFFFF"></path>
                        <path d="M39.7771017,19.6530207 C39.7771017,21.2004 38.6015887,22.3710207 37.2019626,22.3710207 C36.6358148,22.3710207 36.1653626,22.2208138 35.7807278,21.9737793 L35.7807278,24.6806069 L34.05018,24.6806069 L34.05018,17.0535724 L35.7807278,17.0535724 L35.7807278,17.3322621 C36.1653626,17.0852276 36.6358148,16.9356414 37.2019626,16.9356414 C38.6015887,16.9356414 39.7771017,18.0957103 39.7771017,19.6530207 M38.0780409,19.6530207 C38.0780409,18.9330207 37.5656061,18.3532966 36.8599278,18.3532966 C36.475293,18.3532966 36.1011539,18.4712276 35.7807278,18.8473655 L35.7807278,20.4592966 C36.1011539,20.8348138 36.475293,20.9421931 36.8599278,20.9421931 C37.5656061,20.9421931 38.0780409,20.3730207 38.0780409,19.6530207" id="Fill-10" fill="#FFFFFF"></path>
                        <mask id="mask-4" fill="white">
                            <use xlink:href="#path-3"></use>
                        </mask>
                        <g id="Clip-13"></g>
                        <polygon id="Fill-12" fill="#FFFFFF" mask="url(#mask-4)" points="40.6867043 22.2635172 42.4178696 22.2635172 42.4178696 14.6358621 40.6867043 14.6358621"></polygon>
                        <path d="M48.7123591,20.1367241 L48.7234722,20.169 L45.0259157,20.169 C45.1648287,20.6413448 45.5284722,21.006931 46.1903157,21.006931 C46.5539591,21.006931 46.8317852,20.8666552 46.9811939,20.6307931 L48.6913678,20.6307931 C48.4450287,21.7045862 47.4516461,22.3817586 46.1693243,22.3817586 C44.4702635,22.3817586 43.3373504,21.2434138 43.3373504,19.6532069 C43.3373504,18.0735517 44.4381591,16.9358276 46.09462,16.9358276 C47.6010548,16.9358276 48.7444635,17.9773448 48.7444635,19.5458276 C48.7444635,19.7388621 48.7444635,19.943069 48.7123591,20.1367241 M45.004307,19.1479655 L47.120107,19.1479655 C47.0244113,18.5794138 46.6502722,18.2777586 46.09462,18.2777586 C45.5068635,18.2777586 45.1327243,18.6222414 45.004307,19.1479655" id="Fill-14" fill="#FFFFFF" mask="url(#mask-4)"></path>
                        <path d="M49.5468252,15.2594069 C49.5468252,14.6902345 49.9962861,14.271269 50.5624339,14.271269 C51.1180861,14.271269 51.5774252,14.6902345 51.5774252,15.2594069 C51.5774252,15.8180276 51.1180861,16.2369931 50.5624339,16.2369931 C49.9962861,16.2369931 49.5468252,15.8180276 49.5468252,15.2594069 Z M49.7067296,22.2638897 L51.4378948,22.2638897 L51.4378948,17.0538207 L49.7067296,17.0538207 L49.7067296,22.2638897 Z" id="Fill-15" fill="#FFFFFF" mask="url(#mask-4)"></path>
                        <path d="M58.021447,19.2881172 L58.021447,22.2637034 L56.2791687,22.2637034 L56.2791687,19.5668069 C56.2791687,18.8257034 55.905647,18.4712897 55.3388817,18.4712897 C55.0184557,18.4712897 54.6764209,18.6543931 54.3776035,18.9982552 L54.3776035,22.2637034 L52.6458209,22.2637034 L52.6458209,17.0536345 L54.3776035,17.0536345 L54.3776035,17.4080483 C54.7937252,17.0753586 55.2542991,16.8922552 55.8093339,16.8922552 C57.12376,16.8922552 58.021447,17.8052897 58.021447,19.2881172" id="Fill-16" fill="#FFFFFF" mask="url(#mask-4)"></path>
                        <polygon id="Fill-17" fill="#FFFFFF" mask="url(#mask-4)" points="30.3299035 58.5134069 15.1988774 58.5134069 15.1988774 52.2214759 18.6445383 52.2214759 18.6445383 35.4578897 15.3063035 36.4019586 15.1334339 29.4955448 21.4771296 27.2827862 26.0458252 27.2827862 26.0458252 52.2214759 30.3299035 52.2214759"></polygon>
                        <path d="M45.6085478,43.0410414 C42.6777913,43.0410414 40.3014522,40.7736621 40.3014522,37.9755931 C40.3014522,35.1787655 42.6777913,32.9107655 45.6085478,32.9107655 C48.5399217,32.9107655 50.9162609,35.1787655 50.9162609,37.9755931 C50.9162609,40.7736621 48.5399217,43.0410414 45.6085478,43.0410414 M45.5912609,26.721869 C38.1591043,26.721869 33.0520435,31.7643517 33.0520435,38.2735241 C33.0520435,44.2327655 37.7028522,48.8624897 44.5873826,49.2752483 L38.7054957,58.5800069 L47.3693478,58.5800069 L55.439887,45.6994552 C57.080913,43.0869724 58.0841739,40.7029034 58.0841739,38.1363517 C58.0841739,31.8562138 53.068487,26.721869 45.5912609,26.721869" id="Fill-18" fill="#FFFFFF" mask="url(#mask-4)"></path>
                    </g>
                </g>
            </g>
        </g>
    </g>
</svg>