<?xml version="1.0" encoding="UTF-8"?>
<svg width="41px" height="50px" viewBox="0 0 41 50" version="1.1" xmlns="http://www.w3.org/2000/svg" xmlns:xlink="http://www.w3.org/1999/xlink">
    <!-- Generator: Sketch 49.3 (51167) - http://www.bohemiancoding.com/sketch -->
    <title>Page 1</title>
    <desc>Created with Sketch.</desc>
    <defs>
        <polygon id="path-1" points="0.0005 0.0004 40.337 0.0004 40.337 50 0.0005 50"></polygon>
        <polygon id="path-3" points="0 50 40.337 50 40.337 0 0 0"></polygon>
    </defs>
    <g id="Page-1" stroke="none" stroke-width="1" fill="none" fill-rule="evenodd">
        <g id="About" transform="translate(-645.000000, -3290.000000)">
            <g id="Page-1" transform="translate(645.000000, 3290.000000)">
                <g id="Group-3">
                    <mask id="mask-2" fill="white">
                        <use xlink:href="#path-1"></use>
                    </mask>
                    <g id="Clip-2"></g>
                    <path d="M40.3375,20.1684 C40.3375,9.0294 31.3075,0.0004 20.1685,0.0004 C9.0295,0.0004 0.0005,9.0294 0.0005,20.1684 C0.0005,25.2494 1.8925,29.8774 4.9925,33.4244 L4.9715,33.4294 L20.1685,50.0004 L35.4615,33.2954 C38.4935,29.7664 40.3375,25.1874 40.3375,20.1684" id="Fill-1" fill="#FFFFFF" mask="url(#mask-2)"></path>
                </g>
                <polygon id="Fill-4" fill="#000000" points="13.1924 12.7065 12.2644 12.7065 12.2644 11.3075 10.7454 11.3075 10.7454 12.7065 9.8174 12.7065 9.8174 8.9755 10.7454 8.9755 10.7454 10.4735 12.2644 10.4735 12.2644 8.9755 13.1924 8.9755"></polygon>
                <path d="M16.584,11.3725 C16.584,12.1845 15.98,12.7885 15.141,12.7885 C14.301,12.7885 13.698,12.1845 13.698,11.3725 C13.698,10.5715 14.301,9.9845 15.141,9.9845 C15.98,9.9845 16.584,10.5715 16.584,11.3725 M15.745,11.3785 C15.745,11.0325 15.503,10.7525 15.147,10.7525 C14.784,10.7525 14.543,11.0325 14.543,11.3785 C14.543,11.7345 14.784,12.0195 15.147,12.0195 C15.503,12.0195 15.745,11.7345 15.745,11.3785" id="Fill-6" fill="#000000"></path>
                <path d="M19.1964,10.0449 L19.1964,10.8079 L18.2584,10.8079 L18.2584,12.7069 L17.3694,12.7069 L17.3694,10.8079 L16.7164,10.8079 L16.7164,10.0449 L17.3694,10.0449 L17.3694,9.7269 C17.3694,8.9589 17.8574,8.4819 18.5384,8.4819 C18.7524,8.4819 18.9764,8.5089 19.2454,8.5799 L19.1254,9.3209 C18.9994,9.2939 18.8404,9.2719 18.7194,9.2719 C18.4394,9.2719 18.2584,9.4409 18.2584,9.7049 L18.2584,10.0449 L19.1964,10.0449 Z" id="Fill-8" fill="#000000"></path>
                <path d="M22.4395,11.3725 C22.4395,12.1635 21.8355,12.7615 21.1175,12.7615 C20.8265,12.7615 20.5855,12.6845 20.3875,12.5585 L20.3875,13.9405 L19.4985,13.9405 L19.4985,10.0445 L20.3875,10.0445 L20.3875,10.1875 C20.5855,10.0615 20.8265,9.9845 21.1175,9.9845 C21.8355,9.9845 22.4395,10.5775 22.4395,11.3725 M21.5665,11.3725 C21.5665,11.0055 21.3035,10.7085 20.9415,10.7085 C20.7445,10.7085 20.5515,10.7685 20.3875,10.9615 L20.3875,11.7845 C20.5515,11.9765 20.7445,12.0315 20.9415,12.0315 C21.3035,12.0315 21.5665,11.7405 21.5665,11.3725" id="Fill-10" fill="#000000"></path>
                <mask id="mask-4" fill="white">
                    <use xlink:href="#path-3"></use>
                </mask>
                <g id="Clip-13"></g>
                <polygon id="Fill-12" fill="#000000" mask="url(#mask-4)" points="22.906 12.706 23.795 12.706 23.795 8.81 22.906 8.81"></polygon>
                <path d="M27.0274,11.6196 L27.0334,11.6366 L25.1344,11.6366 C25.2054,11.8776 25.3924,12.0636 25.7324,12.0636 C25.9194,12.0636 26.0624,11.9926 26.1384,11.8726 L27.0164,11.8726 C26.8904,12.4206 26.3804,12.7666 25.7214,12.7666 C24.8494,12.7666 24.2674,12.1846 24.2674,11.3726 C24.2674,10.5666 24.8334,9.9846 25.6834,9.9846 C26.4574,9.9846 27.0444,10.5166 27.0444,11.3176 C27.0444,11.4166 27.0444,11.5206 27.0274,11.6196 M25.1234,11.1146 L26.2104,11.1146 C26.1604,10.8246 25.9684,10.6706 25.6834,10.6706 C25.3814,10.6706 25.1894,10.8466 25.1234,11.1146" id="Fill-14" fill="#000000" mask="url(#mask-4)"></path>
                <path d="M27.4561,9.1288 C27.4561,8.8378 27.6861,8.6238 27.9771,8.6238 C28.2631,8.6238 28.4981,8.8378 28.4981,9.1288 C28.4981,9.4138 28.2631,9.6278 27.9771,9.6278 C27.6861,9.6278 27.4561,9.4138 27.4561,9.1288 Z M27.5381,12.7068 L28.4271,12.7068 L28.4271,10.0448 L27.5381,10.0448 L27.5381,12.7068 Z" id="Fill-15" fill="#000000" mask="url(#mask-4)"></path>
                <path d="M31.8077,11.1865 L31.8077,12.7065 L30.9127,12.7065 L30.9127,11.3285 C30.9127,10.9505 30.7217,10.7695 30.4307,10.7695 C30.2657,10.7695 30.0897,10.8625 29.9367,11.0385 L29.9367,12.7065 L29.0477,12.7065 L29.0477,10.0445 L29.9367,10.0445 L29.9367,10.2265 C30.1507,10.0565 30.3867,9.9625 30.6717,9.9625 C31.3467,9.9625 31.8077,10.4295 31.8077,11.1865" id="Fill-16" fill="#000000" mask="url(#mask-4)"></path>
                <polygon id="Fill-17" fill="#000000" mask="url(#mask-4)" points="17.5884 31.2211 9.8184 31.2211 9.8184 28.0071 11.5884 28.0071 11.5884 19.4461 9.8744 19.9271 9.7854 16.4001 13.0424 15.2701 15.3884 15.2701 15.3884 28.0071 17.5884 28.0071"></polygon>
                <path d="M25.4341,23.3188 C23.9291,23.3188 22.7081,22.1598 22.7081,20.7308 C22.7081,19.3018 23.9291,18.1438 25.4341,18.1438 C26.9391,18.1438 28.1591,19.3018 28.1591,20.7308 C28.1591,22.1598 26.9391,23.3188 25.4341,23.3188 M25.4251,14.9838 C21.6081,14.9838 18.9861,17.5588 18.9861,20.8828 C18.9861,23.9268 21.3741,26.2918 24.9091,26.5028 L21.8891,31.2558 L26.3381,31.2558 L30.4821,24.6758 C31.3251,23.3418 31.8401,22.1248 31.8401,20.8128 C31.8401,17.6058 29.2641,14.9838 25.4251,14.9838" id="Fill-18" fill="#000000" mask="url(#mask-4)"></path>
            </g>
        </g>
    </g>
</svg>